<?xml version="1.0" encoding="UTF-8"?>
<svg xmlns="http://www.w3.org/2000/svg" xmlns:xlink="http://www.w3.org/1999/xlink" width="3001" height="3001" viewBox="0 0 3001 3001">
<defs>
<clipPath id="clip-0">
<path clip-rule="nonzero" d="M 0.5 0.5 L 3000.5 0.5 L 3000.5 3000.5 L 0.5 3000.5 Z M 0.5 0.5 "/>
</clipPath>
<radialGradient id="radial-pattern-0" gradientUnits="userSpaceOnUse" cx="0" cy="0" fx="0" fy="0" r="1500" gradientTransform="matrix(1, 0, 0, 1, 1500.5, 1500.5)">
<stop offset="0" stop-color="rgb(99.816895%, 99.940491%, 99.987793%)" stop-opacity="1"/>
<stop offset="0.0625" stop-color="rgb(99.621582%, 99.87793%, 99.975586%)" stop-opacity="1"/>
<stop offset="0.0898438" stop-color="rgb(99.601746%, 99.790955%, 99.862671%)" stop-opacity="1"/>
<stop offset="0.101562" stop-color="rgb(99.586487%, 99.586487%, 99.578857%)" stop-opacity="1"/>
<stop offset="0.15625" stop-color="rgb(99.516296%, 99.441528%, 99.403381%)" stop-opacity="1"/>
<stop offset="0.179688" stop-color="rgb(99.320984%, 99.378967%, 99.391174%)" stop-opacity="1"/>
<stop offset="0.28125" stop-color="rgb(99.186707%, 99.336243%, 99.383545%)" stop-opacity="1"/>
<stop offset="0.300781" stop-color="rgb(99.095154%, 99.220276%, 99.255371%)" stop-opacity="1"/>
<stop offset="0.308594" stop-color="rgb(98.884583%, 98.951721%, 98.959351%)" stop-opacity="1"/>
<stop offset="0.394531" stop-color="rgb(98.753357%, 98.797607%, 98.794556%)" stop-opacity="1"/>
<stop offset="0.429688" stop-color="rgb(98.551941%, 98.634338%, 98.643494%)" stop-opacity="1"/>
<stop offset="0.5" stop-color="rgb(98.269653%, 98.345947%, 98.347473%)" stop-opacity="1"/>
<stop offset="0.5625" stop-color="rgb(98.068237%, 98.182678%, 98.194885%)" stop-opacity="1"/>
<stop offset="0.671875" stop-color="rgb(97.848511%, 98.112488%, 98.181152%)" stop-opacity="1"/>
<stop offset="0.691406" stop-color="rgb(97.645569%, 97.941589%, 98.020935%)" stop-opacity="1"/>
<stop offset="0.707031" stop-color="rgb(97.544861%, 97.711182%, 97.735596%)" stop-opacity="1"/>
<stop offset="0.777344" stop-color="rgb(97.538757%, 97.618103%, 97.607422%)" stop-opacity="1"/>
<stop offset="0.804688" stop-color="rgb(97.454834%, 97.590637%, 97.602844%)" stop-opacity="1"/>
<stop offset="0.816406" stop-color="rgb(97.257996%, 97.511292%, 97.566223%)" stop-opacity="1"/>
<stop offset="0.90625" stop-color="rgb(97.134399%, 97.27478%, 97.28241%)" stop-opacity="1"/>
<stop offset="0.929688" stop-color="rgb(97.013855%, 97.05658%, 97.02301%)" stop-opacity="1"/>
<stop offset="0.945312" stop-color="rgb(96.820068%, 96.995544%, 97.012329%)" stop-opacity="1"/>
<stop offset="1" stop-color="rgb(96.731567%, 96.968079%, 97.007751%)" stop-opacity="1"/>
</radialGradient>
</defs>
<g clip-path="url(#clip-0)">
<path fill-rule="nonzero" fill="url(#radial-pattern-0)" d="M 0.5 0.5 L 0.5 3000.5 L 3000.5 3000.5 L 3000.5 0.5 Z M 0.5 0.5 "/>
</g>
<path fill="none" stroke-width="10" stroke-linecap="butt" stroke-linejoin="miter" stroke="rgb(13.729858%, 12.159729%, 12.548828%)" stroke-opacity="1" stroke-miterlimit="10" d="M 30005 5 L 5 5 L 5 30005 L 30005 30005 Z M 30005 5 " transform="matrix(0.1, 0, 0, -0.1, 0, 3001)"/>
<path fill-rule="nonzero" fill="rgb(6.459045%, 5.915833%, 5.220032%)" fill-opacity="1" d="M 842.605469 2287.78125 L 842.605469 2500.058594 C 750.0625 2474.179688 690.414062 2446.550781 667.167969 2424.621094 L 667.167969 2235.148438 C 721.550781 2256.199219 781.199219 2273.75 842.605469 2287.78125 "/>
<path fill-rule="nonzero" fill="rgb(6.459045%, 5.915833%, 5.220032%)" fill-opacity="1" d="M 2500.5 1917.171875 L 2437.339844 1917.171875 C 2429.011719 1922.429688 2420.238281 1928.128906 2410.589844 1932.960938 C 2418.039062 1942.601562 2421.550781 1951.808594 2421.550781 1961.03125 C 2421.550781 1975.058594 2412.78125 1989.53125 2396.550781 2004.890625 L 2421.550781 2004.890625 L 2421.550781 2443.480469 C 2421.550781 2532.960938 2062.78125 2662.78125 1500.5 2662.78125 C 938.21875 2662.78125 579.445312 2532.960938 579.445312 2443.480469 L 579.445312 2004.890625 L 604.449219 2004.890625 C 588.21875 1989.53125 579.445312 1975.058594 579.445312 1961.03125 C 579.445312 1951.808594 582.957031 1942.601562 590.410156 1932.960938 C 581.199219 1928.128906 571.992188 1922.871094 564.097656 1917.171875 L 500.5 1917.171875 C 494.796875 1931.199219 491.726562 1946.109375 491.726562 1961.03125 L 491.726562 2443.480469 C 491.726562 2645.238281 999.183594 2750.5 1500.5 2750.5 C 2001.820312 2750.5 2509.269531 2645.238281 2509.269531 2443.480469 L 2509.269531 1961.03125 C 2509.269531 1946.109375 2506.199219 1931.199219 2500.5 1917.171875 "/>
<path fill-rule="nonzero" fill="rgb(6.459045%, 5.915833%, 5.220032%)" fill-opacity="1" d="M 2500.5 1917.171875 C 2496.109375 1905.320312 2489.53125 1894.359375 2481.640625 1883.390625 C 2481.199219 1883.828125 2481.199219 1883.828125 2480.761719 1884.269531 C 2468.480469 1895.679688 2454.011719 1906.640625 2437.339844 1917.171875 C 2429.011719 1922.429688 2420.238281 1928.128906 2410.589844 1932.960938 C 2418.039062 1942.601562 2421.550781 1951.808594 2421.550781 1961.03125 C 2421.550781 1975.058594 2412.78125 1989.53125 2396.550781 2004.890625 C 2305.761719 2087.78125 1975.941406 2180.320312 1500.5 2180.320312 C 1025.058594 2180.320312 695.238281 2087.78125 604.449219 2004.890625 C 588.21875 1989.53125 579.445312 1975.058594 579.445312 1961.03125 C 579.445312 1951.808594 582.957031 1942.601562 590.410156 1932.960938 C 581.199219 1928.128906 571.992188 1922.871094 564.097656 1917.171875 C 546.992188 1906.640625 532.515625 1895.679688 519.800781 1883.828125 L 519.359375 1883.390625 C 511.464844 1894.359375 504.886719 1905.320312 500.5 1917.171875 C 494.796875 1931.199219 491.726562 1946.109375 491.726562 1961.03125 C 491.726562 2011.898438 523.746094 2056.199219 579.445312 2094.359375 C 746.554688 2208.828125 1125.058594 2268.039062 1500.5 2268.039062 C 1875.941406 2268.039062 2254.449219 2208.828125 2421.550781 2094.359375 C 2477.25 2056.199219 2509.269531 2011.898438 2509.269531 1961.03125 C 2509.269531 1946.109375 2506.199219 1931.199219 2500.5 1917.171875 "/>
<path fill-rule="nonzero" fill="rgb(6.459045%, 5.915833%, 5.220032%)" fill-opacity="1" d="M 842.605469 1586.03125 L 842.605469 1798.308594 C 750.0625 1772.429688 690.414062 1744.800781 667.167969 1722.871094 L 667.167969 1533.390625 C 721.550781 1554.449219 781.199219 1571.988281 842.605469 1586.03125 "/>
<path fill-rule="nonzero" fill="rgb(6.459045%, 5.915833%, 5.220032%)" fill-opacity="1" d="M 2500.5 1215.410156 L 2437.339844 1215.410156 C 2429.011719 1220.679688 2420.238281 1226.378906 2410.589844 1231.199219 C 2418.039062 1240.851562 2421.550781 1250.058594 2421.550781 1259.269531 C 2421.550781 1273.308594 2412.78125 1287.78125 2396.550781 1303.128906 L 2421.550781 1303.128906 L 2421.550781 1741.730469 C 2421.550781 1760.148438 2406.199219 1780.328125 2377.25 1800.5 C 2353.128906 1817.601562 2318.921875 1834.710938 2275.941406 1851.378906 C 2120.679688 1911.03125 1850.058594 1961.03125 1500.5 1961.03125 C 1150.941406 1961.03125 880.324219 1911.03125 725.0625 1851.378906 C 682.515625 1835.148438 648.308594 1818.039062 624.183594 1800.5 C 594.796875 1780.328125 579.445312 1760.148438 579.445312 1741.730469 L 579.445312 1303.128906 L 604.449219 1303.128906 C 588.21875 1287.78125 579.445312 1273.308594 579.445312 1259.269531 C 579.445312 1250.058594 582.957031 1240.851562 590.410156 1231.199219 C 581.199219 1226.378906 571.992188 1221.109375 564.097656 1215.410156 L 500.5 1215.410156 C 494.796875 1229.449219 491.726562 1244.359375 491.726562 1259.269531 L 491.726562 1741.730469 C 491.726562 1782.519531 512.339844 1818.921875 549.183594 1851.378906 C 569.359375 1869.800781 594.796875 1886.460938 624.183594 1901.808594 C 807.519531 1998.75 1155.761719 2048.75 1500.5 2048.75 C 1845.238281 2048.75 2193.480469 1998.75 2376.808594 1901.808594 C 2406.199219 1886.460938 2431.640625 1869.800781 2451.820312 1851.378906 C 2488.660156 1818.921875 2509.269531 1782.519531 2509.269531 1741.730469 L 2509.269531 1259.269531 C 2509.269531 1244.359375 2506.199219 1229.449219 2500.5 1215.410156 "/>
<path fill-rule="nonzero" fill="rgb(6.459045%, 5.915833%, 5.220032%)" fill-opacity="1" d="M 2500.5 1215.410156 C 2496.109375 1203.570312 2489.53125 1192.601562 2481.640625 1181.640625 C 2481.199219 1182.078125 2481.199219 1182.078125 2480.761719 1182.519531 C 2468.480469 1193.921875 2454.011719 1204.890625 2437.339844 1215.410156 C 2429.011719 1220.679688 2420.238281 1226.378906 2410.589844 1231.199219 C 2418.039062 1240.851562 2421.550781 1250.058594 2421.550781 1259.269531 C 2421.550781 1273.308594 2412.78125 1287.78125 2396.550781 1303.128906 C 2305.761719 1386.03125 1975.941406 1478.570312 1500.5 1478.570312 C 1025.058594 1478.570312 695.238281 1386.03125 604.449219 1303.128906 C 588.21875 1287.78125 579.445312 1273.308594 579.445312 1259.269531 C 579.445312 1250.058594 582.957031 1240.851562 590.410156 1231.199219 C 581.199219 1226.378906 571.992188 1221.109375 564.097656 1215.410156 C 546.992188 1204.890625 532.515625 1193.921875 519.800781 1182.078125 L 519.359375 1181.640625 C 511.464844 1192.601562 504.886719 1203.570312 500.5 1215.410156 C 494.796875 1229.449219 491.726562 1244.359375 491.726562 1259.269531 C 491.726562 1310.148438 523.746094 1354.449219 579.445312 1392.601562 C 746.554688 1507.078125 1125.058594 1566.289062 1500.5 1566.289062 C 1875.941406 1566.289062 2254.449219 1507.078125 2421.550781 1392.601562 C 2477.25 1354.449219 2509.269531 1310.148438 2509.269531 1259.269531 C 2509.269531 1244.359375 2506.199219 1229.449219 2500.5 1215.410156 "/>
<path fill-rule="nonzero" fill="rgb(6.459045%, 5.915833%, 5.220032%)" fill-opacity="1" d="M 842.605469 884.269531 L 842.605469 1096.550781 C 750.0625 1070.679688 690.414062 1043.039062 667.167969 1021.109375 L 667.167969 831.640625 C 721.550781 852.691406 781.199219 870.238281 842.605469 884.269531 "/>
<path fill-rule="nonzero" fill="rgb(6.459045%, 5.915833%, 5.220032%)" fill-opacity="1" d="M 2500.5 513.660156 L 2396.550781 513.660156 C 2412.78125 529.011719 2421.550781 543.480469 2421.550781 557.519531 C 2421.550781 571.550781 2412.78125 586.03125 2396.550781 601.378906 L 2421.550781 601.378906 L 2421.550781 1039.96875 C 2421.550781 1058.390625 2406.199219 1078.570312 2377.25 1098.75 C 2353.128906 1115.851562 2318.921875 1132.960938 2275.941406 1149.621094 C 2120.679688 1209.269531 1850.058594 1259.269531 1500.5 1259.269531 C 1150.941406 1259.269531 880.324219 1209.269531 725.0625 1149.621094 C 682.515625 1133.398438 648.308594 1116.289062 624.183594 1098.75 C 594.796875 1078.570312 579.445312 1058.390625 579.445312 1039.96875 L 579.445312 601.378906 L 604.449219 601.378906 C 588.21875 586.03125 579.445312 571.550781 579.445312 557.519531 C 579.445312 544.359375 588.21875 529.449219 606.199219 513.660156 L 500.5 513.660156 C 494.796875 527.691406 491.726562 542.171875 491.726562 557.519531 L 491.726562 1039.96875 C 491.726562 1080.761719 512.339844 1117.171875 549.183594 1149.621094 C 569.359375 1168.039062 594.796875 1184.710938 624.183594 1200.058594 C 807.519531 1296.988281 1155.761719 1346.988281 1500.5 1346.988281 C 1845.238281 1346.988281 2193.480469 1296.988281 2376.808594 1200.058594 C 2406.199219 1184.710938 2431.640625 1168.039062 2451.820312 1149.621094 C 2488.660156 1117.171875 2509.269531 1080.761719 2509.269531 1039.96875 L 2509.269531 557.519531 C 2509.269531 542.601562 2506.199219 527.691406 2500.5 513.660156 "/>
<path fill-rule="nonzero" fill="rgb(6.459045%, 5.915833%, 5.220032%)" fill-opacity="1" d="M 2509.269531 557.519531 C 2509.269531 608.390625 2477.25 652.691406 2421.550781 690.851562 C 2254.449219 805.328125 1875.941406 864.53125 1500.5 864.53125 C 1125.058594 864.53125 746.554688 805.328125 579.445312 690.851562 C 523.746094 652.691406 491.726562 608.390625 491.726562 557.519531 C 491.726562 542.171875 494.796875 527.691406 500.5 513.660156 C 557.078125 368.921875 894.359375 289.101562 1211.898438 262.339844 C 1235.589844 260.148438 1257.078125 278.128906 1259.269531 302.25 C 1261.03125 326.378906 1243.039062 347.871094 1218.921875 349.621094 C 873.308594 378.570312 674.183594 453.128906 606.199219 513.660156 C 588.21875 529.449219 579.445312 544.359375 579.445312 557.519531 C 579.445312 571.550781 588.21875 586.03125 604.449219 601.378906 C 695.238281 684.269531 1025.058594 776.820312 1500.5 776.820312 C 1975.941406 776.820312 2305.761719 684.269531 2396.550781 601.378906 C 2412.78125 586.03125 2421.550781 571.550781 2421.550781 557.519531 C 2421.550781 543.480469 2412.78125 529.011719 2396.550781 513.660156 C 2305.761719 430.761719 1975.941406 338.21875 1500.5 338.21875 C 1478.570312 338.21875 1456.640625 338.21875 1435.148438 338.660156 C 1411.03125 339.539062 1390.851562 319.800781 1390.410156 295.679688 C 1389.96875 271.550781 1409.269531 251.378906 1433.828125 250.941406 C 1455.761719 250.5 1478.128906 250.5 1500.5 250.5 C 1964.101562 250.5 2433.398438 340.410156 2500.5 513.660156 C 2506.199219 527.691406 2509.269531 542.601562 2509.269531 557.519531 "/>
</svg>
